HIERARCHY
ROOT Hips
{
	OFFSET 3.005370 105.437782 -1.111724
	CHANNELS 6 Xposition Yposition Zposition Xrotation Yrotation Zrotation
	JOINT Chest
	{
		OFFSET -0.015421 13.530762 1.752870
		CHANNELS 3 Xrotation Yrotation Zrotation
		JOINT Chest2
		{
			OFFSET -0.994675 21.291466 2.179561
			CHANNELS 3 Xrotation Yrotation Zrotation
			JOINT Chest3
			{
				OFFSET -0.709015 14.903687 -0.444165
				CHANNELS 3 Xrotation Yrotation Zrotation
				JOINT Neck
				{
					OFFSET 0.215799 17.223877 1.381097
					CHANNELS 3 Xrotation Yrotation Zrotation
					JOINT Head
					{
						OFFSET -0.511241 10.390045 1.270218
						CHANNELS 3 Xrotation Yrotation Zrotation
						End Site
						{
							OFFSET -0.507204 10.398834 1.197781
						}
					}
				}
				JOINT LeftCollar
				{
					OFFSET 4.514206 12.947418 3.713563
					CHANNELS 3 Xrotation Yrotation Zrotation
					JOINT LeftUpArm
					{
						OFFSET 14.281279 -5.354248 -8.710713
						CHANNELS 3 Xrotation Yrotation Zrotation
						JOINT LeftLowArm
						{
							OFFSET 4.226295 -33.489868 0.544033
							CHANNELS 3 Xrotation Yrotation Zrotation
							JOINT LeftHand
							{
								OFFSET -1.240549 -28.318573 9.872536
								CHANNELS 3 Xrotation Yrotation Zrotation
								End Site
								{
									OFFSET -0.271132 -6.189194 2.157691
								}
							}
						}
					}
				}
				JOINT RightCollar
				{
					OFFSET -3.890924 13.018127 4.147021
					CHANNELS 3 Xrotation Yrotation Zrotation
					JOINT RightUpArm
					{
						OFFSET -14.228228 -5.878799 -8.455387
						CHANNELS 3 Xrotation Yrotation Zrotation
						JOINT RightLowArm
						{
							OFFSET -4.689894 -33.430374 0.387031
							CHANNELS 3 Xrotation Yrotation Zrotation
							JOINT RightHand
							{
								OFFSET 2.299372 -27.935440 10.736828
								CHANNELS 3 Xrotation Yrotation Zrotation
								End Site
								{
									OFFSET 0.502548 -6.105568 2.346645
								}
							}
						}
					}
				}
			}
		}
	}
	JOINT LeftUpLeg
	{
		OFFSET 10.017770 -0.021301 0.250938
		CHANNELS 3 Xrotation Yrotation Zrotation
		JOINT LeftLowLeg
		{
			OFFSET 4.459110 -46.858879 -5.324535
			CHANNELS 3 Xrotation Yrotation Zrotation
			JOINT LeftFoot
			{
				OFFSET 1.412485 -43.149414 -11.691901
				CHANNELS 3 Xrotation Yrotation Zrotation
				JOINT LeftToe
				{
					OFFSET 4.078165 -16.149529 16.796448
					CHANNELS 3 Xrotation Yrotation Zrotation
					End Site
					{
						OFFSET 4.831358 -1.525226 23.106071
					}
				}
			}
		}
	}
	JOINT RightUpLeg
	{
		OFFSET -10.017774 0.021103 -0.250964
		CHANNELS 3 Xrotation Yrotation Zrotation
		JOINT RightLowLeg
		{
			OFFSET -1.494355 -47.018276 -5.573215
			CHANNELS 3 Xrotation Yrotation Zrotation
			JOINT RightFoot
			{
				OFFSET 1.336164 -42.503647 -13.864861
				CHANNELS 3 Xrotation Yrotation Zrotation
				JOINT RightToe
				{
					OFFSET -4.617359 -17.622408 15.089316
					CHANNELS 3 Xrotation Yrotation Zrotation
					End Site
					{
						OFFSET -7.720851 -3.623409 22.063896
					}
				}
			}
		}
	}
}
MOTION
Frames: 10
Frame Time: 0.033333
-26.764782 99.452713 -2.811060 6.323345 7.229561 -13.521255 6.030407 1.710079 -12.602514 1.461126 -6.285682 8.418940 -7.577500 -15.223035 -1.073096 7.563208 0.912580 -1.245262 -0.000001 -0.000001 -0.000000 4.153776 -24.786367 19.753554 -40.378046 -17.130309 -4.642126 -42.578853 14.595237 -51.749341 0.000002 0.000012 -0.000001 -4.256845 5.824332 -10.381040 -12.816493 5.941196 -50.007630 -16.606116 -10.397652 -39.334397 -0.000004 0.000001 -0.000002 -23.303979 -16.243090 46.870841 37.024598 -14.431780 -56.723102 -25.053713 45.588955 34.976951 -0.000000 -0.000002 -0.000002 -24.282373 -5.469876 16.205565 20.486193 5.509296 16.697367 -11.781276 -17.338189 -7.685144 -0.000000 -0.000004 -0.000000 
-26.856266 99.419144 -2.883137 6.581699 7.717104 -13.673779 6.925557 1.568848 -12.428914 -0.774497 -6.468397 8.261999 -6.082630 -15.658767 -1.234445 7.067318 0.645839 -0.983291 -0.000001 -0.000001 0.000002 4.264479 -24.584544 20.027817 -40.826554 -17.878655 -4.272557 -42.764012 14.093298 -49.760022 -0.000003 0.000004 0.000000 -3.998338 6.481587 -10.203748 -12.439036 5.765893 -50.258192 -16.183532 -10.356095 -39.985707 -0.000002 0.000002 -0.000004 -23.584756 -16.466282 47.086873 37.038938 -14.473799 -56.937540 -25.196262 45.526079 34.976729 -0.000000 0.000002 -0.000002 -24.752566 -5.504724 16.111849 20.199451 5.377859 17.063091 -11.659905 -17.769019 -7.906081 -0.000001 -0.000003 0.000004 
-26.938190 99.376396 -2.948087 6.390063 7.873542 -13.693171 7.697335 1.430452 -12.377139 -1.758662 -6.343096 7.926043 -5.596377 -15.434810 -0.933185 6.625164 0.347316 -0.540897 -0.000001 -0.000001 -0.000000 4.721486 -24.536191 20.463503 -41.622517 -19.347815 -3.710448 -44.265503 13.674208 -47.004829 -0.000002 0.000012 -0.000000 -3.654548 6.754370 -10.245990 -12.490217 6.945557 -50.108822 -14.662275 -10.833799 -41.066297 0.000001 -0.000002 -0.000001 -23.379642 -16.522986 47.416259 36.900698 -14.549307 -57.464321 -25.339517 45.930973 35.362348 0.000000 -0.000001 0.000001 -24.619653 -5.417307 16.034573 20.000537 5.299169 17.394081 -11.501391 -18.117582 -8.123743 0.000000 -0.000000 -0.000001 
-27.018436 99.336510 -3.011341 6.695950 8.401060 -13.753451 8.352166 1.302984 -12.206969 -2.083199 -6.351659 7.918547 -5.650829 -15.675074 -1.028924 6.127407 0.244697 -0.331949 -0.000002 -0.000001 0.000002 5.136342 -24.832263 20.855708 -42.056514 -20.427844 -3.164621 -45.786726 13.185470 -44.150223 -0.000001 0.000003 0.000001 -3.368719 7.014895 -10.031679 -11.992076 7.032489 -50.544926 -14.175917 -10.679394 -41.843385 -0.000006 0.000002 -0.000003 -23.929455 -16.848975 47.456274 37.295906 -14.780630 -57.504298 -25.649879 45.701492 35.491452 -0.000000 0.000004 -0.000000 -25.444644 -5.375934 15.737736 20.102261 5.244489 18.009226 -11.707886 -18.678293 -8.423789 -0.000000 -0.000002 0.000000 
-27.093094 99.298981 -3.073818 6.882957 8.930607 -13.716330 8.427950 1.301158 -12.258011 -2.047876 -6.397681 7.978263 -5.646632 -15.890427 -1.049551 6.098550 0.140439 -0.237979 -0.000002 -0.000001 -0.000001 4.741867 -24.218959 20.794566 -42.370713 -19.967619 -3.876087 -44.735253 13.474158 -45.838530 0.000000 0.000006 -0.000000 -3.474899 7.455186 -10.057533 -12.396857 6.963675 -50.491217 -13.731193 -11.341862 -42.118170 -0.000001 -0.000003 -0.000003 -24.124863 -17.039720 47.582356 37.284896 -14.795621 -57.880683 -25.970645 45.518764 35.714127 0.000001 -0.000001 -0.000003 -25.574183 -5.315511 15.465655 19.684411 5.097498 18.294482 -11.917797 -18.452475 -8.371122 0.000000 0.000001 0.000000 
-27.164146 99.259911 -3.136881 7.199452 8.988573 -13.691451 8.059447 1.358166 -12.440748 -2.375050 -6.484690 8.047311 -5.411978 -16.827684 -1.184725 6.302334 0.485944 -0.574501 -0.000002 -0.000000 -0.000000 4.475904 -23.415304 20.601570 -42.118187 -20.305615 -3.195678 -44.880063 13.207144 -44.764298 0.000003 0.000006 -0.000000 -3.328752 7.742199 -10.034679 -12.197448 6.940589 -50.401052 -14.203863 -10.829597 -42.111808 0.000002 -0.000003 0.000003 -24.186231 -17.209995 47.982243 36.717984 -14.610169 -58.755650 -27.204215 45.550139 36.533582 -0.000001 -0.000002 0.000000 -26.440878 -5.285337 15.194594 19.961972 5.200309 18.686959 -11.759742 -18.985428 -8.566136 -0.000002 -0.000002 0.000002 
-27.222107 99.227013 -3.191130 6.717365 8.889001 -13.626457 8.604538 1.284710 -12.481599 -2.460852 -6.407247 7.889948 -5.561041 -17.280303 -1.073558 6.364247 0.577817 -0.780237 -0.000001 -0.000000 0.000001 3.957716 -22.253497 20.320993 -42.110169 -19.946191 -3.501583 -43.970699 13.383296 -46.209156 -0.000002 0.000009 -0.000001 -3.250231 8.472524 -10.009672 -12.498797 7.071628 -50.126430 -14.528769 -10.860768 -42.118256 -0.000002 -0.000001 -0.000000 -23.785099 -17.111050 48.338704 36.885190 -14.676623 -59.021529 -27.576976 45.243593 36.642346 0.000002 0.000001 -0.000002 -26.051737 -5.242164 15.129197 19.846532 5.077420 18.798622 -11.599295 -18.680740 -8.357559 -0.000001 -0.000002 0.000001 
-27.278065 99.191780 -3.243779 6.906049 9.292678 -13.659896 8.557628 1.264006 -12.380525 -2.576593 -6.479961 7.967648 -5.427638 -17.751433 -1.320391 6.212749 0.555249 -0.710040 -0.000003 0.000001 0.000001 3.882609 -22.104628 20.096606 -42.035638 -19.928747 -3.586347 -44.278156 13.516582 -46.807163 0.000002 0.000004 0.000000 -3.230049 8.302840 -10.051571 -12.572905 7.385285 -49.984455 -14.175556 -10.870880 -42.332447 -0.000002 -0.000003 0.000003 -23.945796 -17.190859 48.387529 36.966008 -14.761000 -59.067203 -27.634278 45.666249 36.908437 0.000001 -0.000003 0.000004 -26.537983 -5.215736 14.858325 19.837504 5.055264 19.333957 -11.982915 -19.172379 -8.734121 0.000000 -0.000002 0.000002 
-27.339176 99.161850 -3.300655 6.987185 9.572887 -13.613683 8.785249 1.241420 -12.460958 -2.642852 -6.527416 8.037962 -5.453196 -17.676193 -1.397019 6.069188 0.228871 -0.360234 -0.000001 -0.000000 0.000000 3.946342 -22.604156 20.111046 -42.159404 -20.060460 -3.315506 -44.068708 13.693530 -47.066560 0.000000 0.000004 -0.000001 -3.377770 7.863516 -10.125028 -12.226649 6.632677 -50.210203 -14.873705 -10.689186 -41.990060 0.000001 -0.000004 -0.000000 -23.833279 -17.158583 48.398280 36.875505 -14.693497 -59.016987 -27.684649 45.721781 36.980403 0.000001 -0.000001 -0.000001 -27.145832 -5.141511 14.599398 19.907420 5.143493 19.709544 -11.994588 -19.715450 -8.957768 0.000001 -0.000002 -0.000001 
-27.391769 99.133247 -3.356406 6.794020 10.019667 -13.585049 9.163762 1.181989 -12.340095 -2.697183 -6.466610 7.962037 -5.632363 -17.963435 -1.436235 6.367510 0.333720 -0.409773 -0.000001 -0.000001 0.000002 3.896348 -22.497530 19.802409 -42.171791 -20.088189 -3.384799 -43.831667 13.690448 -47.384762 -0.000001 0.000004 -0.000001 -3.332252 7.889860 -10.163444 -12.074587 6.539450 -50.182462 -14.543657 -10.880903 -42.239594 -0.000000 -0.000006 -0.000002 -24.036616 -17.212300 48.205190 37.297727 -14.988130 -58.612592 -27.636738 45.490300 36.700232 0.000002 0.000000 0.000001 -27.234314 -5.055460 14.391062 19.672287 5.143656 20.064369 -12.073273 -20.361093 -9.296256 0.000000 0.000001 -0.000002 
